{
  "accessors": [
    {
      "bufferView": 2,
      "componentType": 5126,
      "count": 4920,
      "max": [
        16.023704528808594,
        1.4179935455322266,
        1.4036531448364258
      ],
      "min": [
        8.762077331542969,
        -1.5156868696212769,
        -1.4622480869293213
      ],
      "type": "VEC3"
    },
    {
      "bufferView": 2,
      "byteOffset": 59040,
      "componentType": 5126,
      "count": 4920,
      "max": [
        0.9995556473731995,
        0.9996333718299866,
        0.9999855756759644
      ],
      "min": [
        -0.9998437762260437,
        -0.9998182058334351,
        -0.9996804594993591
      ],
      "type": "VEC3"
    },
    {
      "bufferView": 1,
      "componentType": 5126,
      "count": 4920,
      "max": [
        0.7578506469726563,
        0.5810537338256836
      ],
      "min": [
        0.018751084804534912,
        0.019177474081516266
      ],
      "type": "VEC2"
    },
    {
      "bufferView": 0,
      "componentType": 5125,
      "count": 28800,
      "type": "SCALAR"
    },
    {
      "bufferView": 2,
      "byteOffset": 118080,
      "componentType": 5126,
      "count": 3183,
      "max": [
        15.980374336242676,
        1.5653197765350342,
        1.5932841300964355
      ],
      "min": [
        -14.37925910949707,
        -1.5412226915359497,
        -1.642090082168579
      ],
      "type": "VEC3"
    },
    {
      "bufferView": 2,
      "byteOffset": 156276,
      "componentType": 5126,
      "count": 3183,
      "max": [
        0.9988228678703308,
        0.9999367594718933,
        0.9999334216117859
      ],
      "min": [
        -1.0,
        -0.9998809099197388,
        -0.999922513961792
      ],
      "type": "VEC3"
    },
    {
      "bufferView": 1,
      "byteOffset": 39360,
      "componentType": 5126,
      "count": 3183,
      "max": [
        0.982823371887207,
        0.9683725237846375
      ],
      "min": [
        0.02483046054840088,
        0.03415045142173767
      ],
      "type": "VEC2"
    },
    {
      "bufferView": 0,
      "byteOffset": 115200,
      "componentType": 5125,
      "count": 18240,
      "type": "SCALAR"
    },
    {
      "bufferView": 2,
      "byteOffset": 194472,
      "componentType": 5126,
      "count": 7035,
      "max": [
        16.018333435058594,
        0.8698420524597168,
        1.6946868896484375
      ],
      "min": [
        -13.833260536193848,
        -1.1363892555236816,
        -0.7180134057998657
      ],
      "type": "VEC3"
    },
    {
      "bufferView": 2,
      "byteOffset": 278892,
      "componentType": 5126,
      "count": 7035,
      "max": [
        0.9977468848228455,
        0.9999998807907104,
        0.9999619722366333
      ],
      "min": [
        -0.9968698620796204,
        -0.9998448491096497,
        -0.9999035596847534
      ],
      "type": "VEC3"
    },
    {
      "bufferView": 1,
      "byteOffset": 64824,
      "componentType": 5126,
      "count": 7035,
      "max": [
        0.8860424757003784,
        0.7432568669319153
      ],
      "min": [
        0.04919075965881348,
        0.6644338369369507
      ],
      "type": "VEC2"
    },
    {
      "bufferView": 0,
      "byteOffset": 188160,
      "componentType": 5125,
      "count": 40080,
      "type": "SCALAR"
    }
  ],
  "asset": {
    "extras": {
      "author": "Viya27 (https://sketchfab.com/Viya27)",
      "license": "CC-BY-4.0 (http://creativecommons.org/licenses/by/4.0/)",
      "source": "https://sketchfab.com/3d-models/wand-03-438625f0b35f4a81b59b06097ebf21af",
      "title": "Wand 0.3"
    },
    "generator": "Sketchfab-13.74.0",
    "version": "2.0"
  },
  "bufferViews": [
    {
      "buffer": 0,
      "byteLength": 348480,
      "name": "floatBufferViews",
      "target": 34963
    },
    {
      "buffer": 0,
      "byteLength": 121104,
      "byteOffset": 348480,
      "byteStride": 8,
      "name": "floatBufferViews",
      "target": 34962
    },
    {
      "buffer": 0,
      "byteLength": 363312,
      "byteOffset": 469584,
      "byteStride": 12,
      "name": "floatBufferViews",
      "target": 34962
    }
  ],
  "buffers": [
    {
      "byteLength": 832896,
      "uri": "scene.bin"
    }
  ],
  "materials": [
    {
      "doubleSided": true,
      "name": "lambert3",
      "pbrMetallicRoughness": {
        "baseColorFactor": [
          0.5,
          0.5,
          0.5,
          1.0
        ],
        "metallicFactor": 0.0,
        "roughnessFactor": 0.6
      }
    },
    {
      "doubleSided": true,
      "name": "lambert4",
      "pbrMetallicRoughness": {
        "baseColorFactor": [
          0.5,
          0.5,
          0.5,
          1.0
        ],
        "metallicFactor": 0.0,
        "roughnessFactor": 0.6
      }
    },
    {
      "doubleSided": true,
      "name": "lambert5",
      "pbrMetallicRoughness": {
        "baseColorFactor": [
          0.5,
          0.5,
          0.5,
          1.0
        ],
        "metallicFactor": 0.0,
        "roughnessFactor": 0.6
      }
    }
  ],
  "meshes": [
    {
      "name": "polySurface19_lambert3_0",
      "primitives": [
        {
          "attributes": {
            "NORMAL": 1,
            "POSITION": 0,
            "TEXCOORD_0": 2
          },
          "indices": 3,
          "material": 0,
          "mode": 4
        }
      ]
    },
    {
      "name": "polySurface19_lambert4_0",
      "primitives": [
        {
          "attributes": {
            "NORMAL": 5,
            "POSITION": 4,
            "TEXCOORD_0": 6
          },
          "indices": 7,
          "material": 1,
          "mode": 4
        }
      ]
    },
    {
      "name": "polySurface19_lambert5_0",
      "primitives": [
        {
          "attributes": {
            "NORMAL": 9,
            "POSITION": 8,
            "TEXCOORD_0": 10
          },
          "indices": 11,
          "material": 2,
          "mode": 4
        }
      ]
    }
  ],
  "nodes": [
    {
      "children": [
        1
      ],
      "matrix": [
        1.0,
        0.0,
        0.0,
        0.0,
        0.0,
        2.220446049250313e-16,
        -1.0,
        0.0,
        0.0,
        1.0,
        2.220446049250313e-16,
        0.0,
        0.0,
        0.0,
        0.0,
        1.0
      ],
      "name": "Sketchfab_model"
    },
    {
      "children": [
        2
      ],
      "matrix": [
        0.009999999776482582,
        0.0,
        0.0,
        0.0,
        0.0,
        0.0,
        0.009999999776482582,
        0.0,
        0.0,
        -0.009999999776482582,
        0.0,
        0.0,
        0.0,
        0.0,
        0.0,
        1.0
      ],
      "name": "6fd7bb11c494461397726181bd8db44a.fbx"
    },
    {
      "children": [
        3
      ],
      "name": "RootNode"
    },
    {
      "children": [
        4,
        5,
        6
      ],
      "name": "polySurface19"
    },
    {
      "mesh": 0,
      "name": "polySurface19_lambert3_0"
    },
    {
      "mesh": 1,
      "name": "polySurface19_lambert4_0"
    },
    {
      "mesh": 2,
      "name": "polySurface19_lambert5_0"
    }
  ],
  "scene": 0,
  "scenes": [
    {
      "name": "Sketchfab_Scene",
      "nodes": [
        0
      ]
    }
  ]
}
